<svg xmlns="http://www.w3.org/2000/svg" viewBox="0 0 256 256">
  <circle cx="128" cy="128" r="128" fill="#FF4500"/>
  <path d="M213.15 129.22c0-8.08-6.58-14.66-14.66-14.66-3.94 0-7.52 1.58-10.13 4.13-9.99-7.21-23.75-11.87-39.18-12.44l6.68-31.39 21.81 4.62c.28 5.53 4.89 9.95 10.5 9.95 5.81 0 10.53-4.72 10.53-10.53s-4.72-10.53-10.53-10.53c-4.1 0-7.66 2.35-9.4 5.78l-24.29-5.15c-.76-.16-1.53.03-2.11.53-.58.5-.89 1.22-.85 1.97l-7.4 34.82c-15.74.47-29.76 5.13-39.89 12.42-2.61-2.49-6.15-4.02-10.03-4.02-8.08 0-14.66 6.58-14.66 14.66 0 5.74 3.31 10.71 8.14 13.13-.26 1.57-.4 3.17-.4 4.8 0 24.42 28.43 44.22 63.5 44.22s63.5-19.8 63.5-44.22c0-1.62-.13-3.22-.38-4.78 4.88-2.4 8.25-7.39 8.25-13.15zm-115.5-5.28c0-5.81 4.72-10.53 10.53-10.53 5.81 0 10.53 4.72 10.53 10.53s-4.72 10.53-10.53 10.53c-5.81 0-10.53-4.72-10.53-10.53zm58.96 27.82c-7.2 7.2-20.94 7.74-28.61 7.74s-21.42-.54-28.61-7.74c-1.13-1.13-1.13-2.95 0-4.07 1.13-1.13 2.95-1.13 4.07 0 4.54 4.54 14.28 6.17 24.54 6.17s20.01-1.63 24.54-6.17c1.13-1.13 2.95-1.13 4.07 0 1.13 1.13 1.13 2.95 0 4.07zm-2.07-17.29c-5.81 0-10.53-4.72-10.53-10.53s4.72-10.53 10.53-10.53c5.81 0 10.53 4.72 10.53 10.53s-4.72 10.53-10.53 10.53z" fill="#FFF"/>
</svg>
