<svg xmlns="http://www.w3.org/2000/svg" viewBox="0 0 256 256" fill="none">
  <rect width="256" height="256" rx="60" fill="#FF9900"/>
  <path d="M158.5 180.4c-23.2 17.1-56.8 26.2-85.8 26.2-40.6 0-77.2-15-104.8-40-2.2-2-0.2-4.7 2.4-3.2 29.8 17.4 66.6 27.8 104.7 27.8 25.7 0 53.9-5.3 79.9-16.3 3.9-1.7 7.2 2.6 3.6 5.5z" fill="#232F3E"/>
  <path d="M166.5 171.6c-3-3.8-19.6-1.8-27.1-0.9-2.3 0.3-2.6-1.7-0.6-3.2 13.3-9.3 35-6.6 37.5-3.5 2.5 3.2-0.7 25.2-13.2 35.7-1.9 1.6-3.8 0.8-2.9-1.4 2.8-7 9-22.7 6.3-26.7z" fill="#FF9900"/>
  <path d="M150.3 76.8v-8.3c0-1.3 1-2.2 2.2-2.2h39.1c1.2 0 2.2 1 2.2 2.2v7.1c0 1.3-1.1 2.9-3 5.5l-20.3 29c7.5-0.2 15.5 0.9 22.3 4.7 1.5 0.8 2 2.1 2.1 3.3v8.9c0 1.2-1.4 2.7-2.8 1.9-11.9-6.2-27.7-6.9-40.8 0.1-1.4 0.7-2.8-0.7-2.8-1.9v-8.4c0-1.5 0-4 1.5-6.3l23.5-33.7h-20.4c-1.2 0-2.2-1-2.2-2.2l0.4-0.7zM63.8 125h-11.4c-1.1-0.1-2-0.9-2.1-2V68.8c0-1.2 1-2.2 2.2-2.2h10.6c1.1 0.1 2 0.9 2.1 2v7.4h0.2c2.8-7.4 8.1-10.5 15.2-10.5 7.2 0 11.7 3.1 15 10.5 2.8-7.4 9.2-10.5 15.9-10.5 4.8 0 10.1 2 13.3 6.5 3.6 5 2.9 12.3 2.9 18.7l-0.1 32.1c0 1.2-1 2.2-2.2 2.2h-11.4c-1.1-0.1-2-1-2.1-2.1V92.5c0-2.5 0.2-8.8-0.3-11.2-0.8-4-3.2-5.1-6.3-5.1-2.6 0-5.3 1.7-6.4 4.5-1.1 2.7-1 7.3-1 11.2v30.9c0 1.2-1 2.2-2.2 2.2H83.2c-1.1-0.1-2-1-2.1-2.1l-0.1-32.2c0-6.8 1.1-16.8-6.6-16.8-7.8 0-7.5 8.9-7.5 16.8v32.2c0 1.2-1 2.2-2.2 2.2l0.9 0.9z" fill="white"/>
</svg>
