<svg xmlns="http://www.w3.org/2000/svg" viewBox="0 0 24 24" fill="none">
  <path d="M17.128 0c-.316 0-.633.08-.949.237l-.527.237c-.316.158-.633.316-.949.395-.316.079-.475.158-.633.237-.158.079-.316.079-.475.158-.158.079-.237.079-.395.158-.158.079-.237.079-.395.158-.158 0-.237.079-.395.079s-.237 0-.316.079c-.079 0-.158 0-.237.079-.079 0-.158 0-.237.079-.079 0-.158.079-.316.079-.079 0-.158.079-.237.079-.079 0-.158 0-.237.079-.079 0-.158.079-.237.079-.237.158-.395.237-.554.395-.158.158-.237.316-.316.474-.079.158-.158.316-.158.475v13.427c0 .316.079.633.237.949.158.316.395.554.633.791.237.237.554.395.87.554.317.158.634.237.95.316.316.079.633.079.949.079h.158c.316 0 .633-.079.949-.158.316-.079.633-.237.949-.395.316-.158.554-.395.791-.633.237-.237.395-.554.554-.87.079-.317.158-.634.158-.95V2.056c0-.158 0-.237-.079-.395 0-.079-.079-.158-.079-.237l-.079-.237c-.079-.079-.079-.158-.158-.237-.079-.079-.079-.158-.158-.237-.079-.079-.158-.158-.237-.237l-.237-.237c-.079-.079-.158-.079-.237-.158-.079-.079-.158-.079-.237-.158-.079-.079-.158-.079-.237-.158-.079 0-.158-.079-.237-.079-.079 0-.158-.079-.316-.079-.079 0-.158-.079-.237-.079-.079 0-.158 0-.237-.079h-.554zm-5.298.949c-.158 0-.316.079-.475.079-.158.079-.316.158-.475.237-.158.079-.316.237-.475.395-.158.158-.237.316-.316.475v15.195c0 .158 0 .316.079.475.079.158.158.316.316.475.158.158.316.237.475.316.158.079.395.079.554.079.158 0 .316 0 .475-.079.158-.079.316-.158.475-.316.158-.158.237-.316.316-.475.079-.158.079-.316.079-.475V2.056c0-.158-.079-.316-.158-.475-.079-.158-.237-.316-.395-.395-.158-.158-.316-.237-.475-.237z" fill="#336791"/>
</svg>
