<svg xmlns="http://www.w3.org/2000/svg" viewBox="0 0 24 24" fill="none">
  <path d="M16.71 5.32a.43.43 0 0 0-.38-.08s-.15.06-.43.15c-.02-.07-.05-.14-.08-.22-.26-.65-.64-1-1.13-1a1.5 1.5 0 0 0-.22.02c-.02-.03-.05-.05-.07-.08a2 2 0 0 0-1.5-.67c-1.15 0-2.3 1.43-2.68 2.88-.63.2-1.07.33-1.1.35-.34.1-.35.11-.39.43-.03.25-.89 6.87-.89 6.87l6.42 1.24 3.13-.75S16.75 5.41 16.71 5.32zm-3.28-.73v.09c-.3.09-.64.19-1 .3.19-.73.55-1.08.8-1.21.06.16.1.38.1.64v.18h.1zm-.8-1.03c.1 0 .19.02.28.06-.37.21-.78.72-.96 1.74l-.83.26c.24-1.12.79-2.06 1.51-2.06zm.5 3.08l.64-.2c-.05-.23-.23-.48-.4-.64.07.26.04.55-.02.84h-.22z" fill="#96BF48"/>
  <path d="M16.33 5.24s-.15.06-.43.15c-.02-.07-.05-.14-.08-.22-.26-.65-.64-1-1.13-1-.03 0-.05 0-.08.01l-.08 16.53 3.13-.75s-1.29-9.05-1.33-9.14a.43.43 0 0 0-.38-.08l.38-5.5z" fill="#5E8E3E"/>
</svg>
