<svg xmlns="http://www.w3.org/2000/svg" viewBox="0 0 24 24" fill="none">
  <path d="M10.5 3.5C10.5 2.67 11.17 2 12 2s1.5.67 1.5 1.5v5c0 .83-.67 1.5-1.5 1.5s-1.5-.67-1.5-1.5v-5zM12 15c-.83 0-1.5.67-1.5 1.5v5c0 .83.67 1.5 1.5 1.5s1.5-.67 1.5-1.5v-5c0-.83-.67-1.5-1.5-1.5zM3.5 10.5c0-.83.67-1.5 1.5-1.5h5c.83 0 1.5.67 1.5 1.5S10.83 12 10 12H5c-.83 0-1.5-.67-1.5-1.5zM14 10.5c0-.83.67-1.5 1.5-1.5h5c.83 0 1.5.67 1.5 1.5S21.33 12 20.5 12h-5c-.83 0-1.5-.67-1.5-1.5z" fill="#6366f1"/>
  <circle cx="12" cy="12" r="2" fill="#6366f1"/>
</svg>
